<?xml version="1.0" encoding="UTF-8"?>
<svg fill="#1D70B8" width="100pt" height="100pt" version="1.1" viewBox="0 0 100 100" xmlns="http://www.w3.org/2000/svg">
 <g>
  <path d="m50 8.332c-22.918 0-41.668 18.75-41.668 41.668s18.75 41.668 41.668 41.668 41.668-18.75 41.668-41.668-18.75-41.668-41.668-41.668zm0 75c-18.332 0-33.332-15-33.332-33.332s15-33.332 33.332-33.332 33.332 15 33.332 33.332-15 33.332-33.332 33.332z"/>
  <path d="m50 25c-2.5 0-4.168 2.082-4.168 4.168 0 2.5 2.082 4.168 4.168 4.168 2.5 0 4.168-2.082 4.168-4.168 0-2.5-1.668-4.168-4.168-4.168z"/>
  <path d="m45.832 41.668v29.168c0 5.418 8.332 5.418 8.332 0v-29.168c0.003907-5.418-8.332-5.418-8.332 0z"/>
 </g>
</svg>
